<svg xmlns="http://www.w3.org/2000/svg" xmlns:xlink="http://www.w3.org/1999/xlink" width="500" zoomAndPan="magnify" viewBox="0 0 375 374.999991" height="500" preserveAspectRatio="xMidYMid meet" version="1.0"><defs><clipPath id="557f6732e9"><path d="M 109.796875 5.214844 L 222.296875 5.214844 L 222.296875 106.464844 L 109.796875 106.464844 Z M 109.796875 5.214844 " clip-rule="nonzero"/></clipPath><clipPath id="86a27ac1b7"><path d="M 1 0.214844 L 113 0.214844 L 113 101.464844 L 1 101.464844 Z M 1 0.214844 " clip-rule="nonzero"/></clipPath><clipPath id="e05fdbd66d"><rect x="0" width="114" y="0" height="102"/></clipPath><clipPath id="4f6cd1a357"><path d="M 4 14 L 97 14 L 97 117 L 4 117 Z M 4 14 " clip-rule="nonzero"/></clipPath><clipPath id="aa1f5d3636"><path d="M 18.808594 5.640625 L 109.589844 22.035156 L 90.792969 126.101562 L 0.0117188 109.707031 Z M 18.808594 5.640625 " clip-rule="nonzero"/></clipPath><clipPath id="b615e68b6e"><path d="M 18.808594 5.640625 L 109.589844 22.035156 L 90.792969 126.101562 L 0.0117188 109.707031 Z M 18.808594 5.640625 " clip-rule="nonzero"/></clipPath><clipPath id="42f5477693"><path d="M 18.808594 5.640625 L 109.589844 22.035156 L 90.792969 126.101562 L 0.0117188 109.707031 Z M 18.808594 5.640625 " clip-rule="nonzero"/></clipPath><clipPath id="94338f7dfc"><path d="M 37 30 L 72 30 L 72 58 L 37 58 Z M 37 30 " clip-rule="nonzero"/></clipPath><clipPath id="24c6baf956"><path d="M 18.808594 5.640625 L 109.589844 22.035156 L 90.792969 126.101562 L 0.0117188 109.707031 Z M 18.808594 5.640625 " clip-rule="nonzero"/></clipPath><clipPath id="2e3ea2f4eb"><path d="M 18.808594 5.640625 L 109.589844 22.035156 L 90.792969 126.101562 L 0.0117188 109.707031 Z M 18.808594 5.640625 " clip-rule="nonzero"/></clipPath><clipPath id="02b26664c1"><path d="M 18.808594 5.640625 L 109.589844 22.035156 L 90.792969 126.101562 L 0.0117188 109.707031 Z M 18.808594 5.640625 " clip-rule="nonzero"/></clipPath><clipPath id="746b2f763d"><path d="M 37 35 L 66 35 L 66 53 L 37 53 Z M 37 35 " clip-rule="nonzero"/></clipPath><clipPath id="870c9ef8b4"><path d="M 18.808594 5.640625 L 109.589844 22.035156 L 90.792969 126.101562 L 0.0117188 109.707031 Z M 18.808594 5.640625 " clip-rule="nonzero"/></clipPath><clipPath id="210f862a12"><path d="M 18.808594 5.640625 L 109.589844 22.035156 L 90.792969 126.101562 L 0.0117188 109.707031 Z M 18.808594 5.640625 " clip-rule="nonzero"/></clipPath><clipPath id="b54732d810"><path d="M 18.808594 5.640625 L 109.589844 22.035156 L 90.792969 126.101562 L 0.0117188 109.707031 Z M 18.808594 5.640625 " clip-rule="nonzero"/></clipPath><clipPath id="166b72f80c"><path d="M 39 60 L 62 60 L 62 69 L 39 69 Z M 39 60 " clip-rule="nonzero"/></clipPath><clipPath id="5809308628"><path d="M 18.808594 5.640625 L 109.589844 22.035156 L 90.792969 126.101562 L 0.0117188 109.707031 Z M 18.808594 5.640625 " clip-rule="nonzero"/></clipPath><clipPath id="fe0c8d2df4"><path d="M 18.808594 5.640625 L 109.589844 22.035156 L 90.792969 126.101562 L 0.0117188 109.707031 Z M 18.808594 5.640625 " clip-rule="nonzero"/></clipPath><clipPath id="76b15113e6"><path d="M 18.808594 5.640625 L 109.589844 22.035156 L 90.792969 126.101562 L 0.0117188 109.707031 Z M 18.808594 5.640625 " clip-rule="nonzero"/></clipPath><clipPath id="efc3bbb7e9"><path d="M 230 12 L 337 12 L 337 119 L 230 119 Z M 230 12 " clip-rule="nonzero"/></clipPath><clipPath id="301a4d091f"><path d="M 222.457031 20.695312 L 320.042969 0.0234375 L 341.957031 103.476562 L 244.371094 124.148438 Z M 222.457031 20.695312 " clip-rule="nonzero"/></clipPath><clipPath id="97b47aff22"><path d="M 222.457031 20.695312 L 320.042969 0.0234375 L 341.957031 103.476562 L 244.371094 124.148438 Z M 222.457031 20.695312 " clip-rule="nonzero"/></clipPath><clipPath id="0882971191"><path d="M 222.457031 20.695312 L 320.042969 0.0234375 L 341.957031 103.476562 L 244.371094 124.148438 Z M 222.457031 20.695312 " clip-rule="nonzero"/></clipPath><clipPath id="0b0da6b284"><path d="M 252 43 L 292 43 L 292 69 L 252 69 Z M 252 43 " clip-rule="nonzero"/></clipPath><clipPath id="186dfc5a5b"><path d="M 222.457031 20.695312 L 320.042969 0.0234375 L 341.957031 103.476562 L 244.371094 124.148438 Z M 222.457031 20.695312 " clip-rule="nonzero"/></clipPath><clipPath id="d049c04f8b"><path d="M 222.457031 20.695312 L 320.042969 0.0234375 L 341.957031 103.476562 L 244.371094 124.148438 Z M 222.457031 20.695312 " clip-rule="nonzero"/></clipPath><clipPath id="4b23209e7b"><path d="M 222.457031 20.695312 L 320.042969 0.0234375 L 341.957031 103.476562 L 244.371094 124.148438 Z M 222.457031 20.695312 " clip-rule="nonzero"/></clipPath><clipPath id="fd97259463"><path d="M 253 49 L 285 49 L 285 66 L 253 66 Z M 253 49 " clip-rule="nonzero"/></clipPath><clipPath id="940f1ecaa9"><path d="M 222.457031 20.695312 L 320.042969 0.0234375 L 341.957031 103.476562 L 244.371094 124.148438 Z M 222.457031 20.695312 " clip-rule="nonzero"/></clipPath><clipPath id="22d8c78205"><path d="M 222.457031 20.695312 L 320.042969 0.0234375 L 341.957031 103.476562 L 244.371094 124.148438 Z M 222.457031 20.695312 " clip-rule="nonzero"/></clipPath><clipPath id="3bbbc8a548"><path d="M 222.457031 20.695312 L 320.042969 0.0234375 L 341.957031 103.476562 L 244.371094 124.148438 Z M 222.457031 20.695312 " clip-rule="nonzero"/></clipPath><clipPath id="1bc321eb67"><path d="M 266 69 L 287 69 L 287 82 L 266 82 Z M 266 69 " clip-rule="nonzero"/></clipPath><clipPath id="5c1f86aaab"><path d="M 222.457031 20.695312 L 320.042969 0.0234375 L 341.957031 103.476562 L 244.371094 124.148438 Z M 222.457031 20.695312 " clip-rule="nonzero"/></clipPath><clipPath id="5cb9dc7255"><path d="M 222.457031 20.695312 L 320.042969 0.0234375 L 341.957031 103.476562 L 244.371094 124.148438 Z M 222.457031 20.695312 " clip-rule="nonzero"/></clipPath><clipPath id="286f443c12"><path d="M 222.457031 20.695312 L 320.042969 0.0234375 L 341.957031 103.476562 L 244.371094 124.148438 Z M 222.457031 20.695312 " clip-rule="nonzero"/></clipPath></defs><g clip-path="url(#557f6732e9)"><g transform="matrix(1, 0, 0, 1, 109, 5)"><g clip-path="url(#e05fdbd66d)"><g clip-path="url(#86a27ac1b7)"><path fill="#efc5c5" d="M 38.898438 0.269531 L 75.480469 0.269531 C 82.207031 0.269531 88.421875 3.859375 91.785156 9.695312 L 110.078125 41.421875 C 113.441406 47.253906 113.441406 54.441406 110.078125 60.273438 L 91.785156 92 C 88.421875 97.832031 82.207031 101.425781 75.480469 101.425781 L 38.898438 101.425781 C 32.171875 101.425781 25.953125 97.832031 22.589844 92 L 4.300781 60.273438 C 0.9375 54.441406 0.9375 47.253906 4.300781 41.421875 L 22.589844 9.695312 C 25.953125 3.859375 32.171875 0.269531 38.898438 0.269531 Z M 38.898438 0.269531 " fill-opacity="1" fill-rule="nonzero"/></g><path fill="#ffffff" d="M 74.90625 31.4375 C 74.90625 37.574219 77.996094 42.546875 81.808594 42.546875 C 85.617188 42.546875 88.707031 37.574219 88.707031 31.4375 C 88.707031 25.300781 85.617188 20.324219 81.808594 20.324219 C 77.996094 20.324219 74.90625 25.300781 74.90625 31.4375 Z M 63.863281 20.324219 C 67.675781 20.324219 70.761719 25.300781 70.761719 31.4375 C 70.761719 37.574219 67.675781 42.546875 63.863281 42.546875 C 60.050781 42.546875 56.960938 37.574219 56.960938 31.4375 C 56.960938 25.300781 60.050781 20.324219 63.863281 20.324219 Z M 63.863281 20.324219 " fill-opacity="1" fill-rule="nonzero"/><path fill="#000000" d="M 80.28125 28.589844 C 80.28125 32.066406 82.027344 34.882812 84.1875 34.882812 C 86.34375 34.882812 88.09375 32.066406 88.09375 28.589844 C 88.09375 25.113281 86.34375 22.296875 84.1875 22.296875 C 82.027344 22.296875 80.28125 25.113281 80.28125 28.589844 Z M 66.242188 22.296875 C 68.398438 22.296875 70.148438 25.113281 70.148438 28.589844 C 70.148438 32.066406 68.398438 34.882812 66.242188 34.882812 C 64.085938 34.882812 62.335938 32.066406 62.335938 28.589844 C 62.335938 25.113281 64.085938 22.296875 66.242188 22.296875 Z M 66.242188 22.296875 " fill-opacity="1" fill-rule="nonzero"/><path fill="#c99191" d="M 61.398438 46.53125 C 61.636719 46.308594 62.011719 46.320312 62.234375 46.558594 C 65.929688 50.523438 73.910156 51.625 78.761719 50.132812 L 78.902344 50.089844 C 80.679688 49.542969 81.753906 49.210938 83.4375 47.496094 C 83.664062 47.265625 84.039062 47.261719 84.273438 47.488281 C 84.503906 47.71875 84.507812 48.09375 84.28125 48.328125 C 82.386719 50.257812 81.070312 50.660156 79.25 51.21875 L 79.105469 51.261719 C 78.570312 51.429688 78.003906 51.5625 77.414062 51.671875 C 72.164062 52.621094 65.015625 51.273438 61.371094 47.367188 C 61.148438 47.128906 61.160156 46.753906 61.398438 46.53125 Z M 61.398438 46.53125 " fill-opacity="1" fill-rule="nonzero"/></g></g></g><g clip-path="url(#4f6cd1a357)"><g clip-path="url(#aa1f5d3636)"><g clip-path="url(#b615e68b6e)"><g clip-path="url(#42f5477693)"><path fill="#cbbfdd" d="M 5.554688 80.382812 C 7 71.457031 9.929688 63.617188 13.035156 55.078125 C 20.496094 34.542969 38.058594 9.128906 65.183594 15.660156 C 71.242188 17.121094 77.160156 19.808594 81.335938 24.550781 C 97.082031 42.449219 97.992188 69.515625 95.707031 91.371094 C 94.773438 100.285156 93.464844 110.707031 84.765625 115.652344 C 76.742188 120.207031 73.390625 110.53125 67.058594 109.007812 C 61.433594 107.652344 58.386719 115.582031 51.328125 115.222656 C 39.90625 114.640625 43.386719 102.21875 32.070312 101.296875 C 23.558594 100.601562 18.167969 112.988281 10.699219 108.777344 C 1.347656 103.5 5.554688 80.382812 5.554688 80.382812 Z M 5.554688 80.382812 " fill-opacity="1" fill-rule="nonzero"/></g></g></g></g><g clip-path="url(#94338f7dfc)"><g clip-path="url(#24c6baf956)"><g clip-path="url(#2e3ea2f4eb)"><g clip-path="url(#02b26664c1)"><path fill="#ffffff" d="M 52.347656 43.710938 C 51.160156 50.269531 46.984375 55.007812 43.015625 54.292969 C 39.042969 53.574219 36.789062 47.675781 37.972656 41.113281 C 39.15625 34.550781 43.335938 29.8125 47.304688 30.527344 C 51.273438 31.246094 53.53125 37.148438 52.347656 43.710938 Z M 65.996094 33.90625 C 62.027344 33.1875 57.847656 37.925781 56.664062 44.488281 C 55.476562 51.050781 57.734375 56.953125 61.703125 57.667969 C 65.671875 58.386719 69.851562 53.648438 71.039062 47.085938 C 72.222656 40.523438 69.964844 34.621094 65.996094 33.90625 Z M 65.996094 33.90625 " fill-opacity="1" fill-rule="nonzero"/></g></g></g></g><g clip-path="url(#746b2f763d)"><g clip-path="url(#870c9ef8b4)"><g clip-path="url(#210f862a12)"><g clip-path="url(#b54732d810)"><path fill="#000000" d="M 46.167969 42.8125 C 45.496094 46.53125 43.132812 49.214844 40.882812 48.808594 C 38.636719 48.402344 37.359375 45.058594 38.03125 41.34375 C 38.699219 37.628906 41.066406 34.945312 43.316406 35.351562 C 45.5625 35.757812 46.839844 39.097656 46.167969 42.8125 Z M 62.386719 38.820312 C 60.136719 38.414062 57.769531 41.097656 57.101562 44.8125 C 56.429688 48.527344 57.707031 51.871094 59.953125 52.277344 C 62.203125 52.683594 64.570312 50 65.238281 46.285156 C 65.910156 42.566406 64.632812 39.226562 62.386719 38.820312 Z M 62.386719 38.820312 " fill-opacity="1" fill-rule="nonzero"/></g></g></g></g><g clip-path="url(#166b72f80c)"><g clip-path="url(#5809308628)"><g clip-path="url(#fe0c8d2df4)"><g clip-path="url(#76b15113e6)"><path fill="#8e7daa" d="M 60.894531 65.671875 C 58.660156 67.6875 55.359375 68.40625 52.015625 68.242188 C 49.371094 68.109375 46.703125 67.421875 44.515625 66.382812 C 42.765625 65.554688 39.121094 63.824219 39.273438 60.699219 C 39.289062 60.339844 39.597656 60.0625 39.960938 60.078125 C 40.324219 60.097656 40.601562 60.40625 40.585938 60.765625 C 40.476562 63.019531 43.46875 64.4375 45.078125 65.203125 C 49.644531 67.371094 56.433594 67.929688 60.011719 64.699219 C 60.28125 64.457031 60.699219 64.476562 60.941406 64.746094 C 61.183594 65.015625 61.164062 65.429688 60.894531 65.671875 Z M 60.894531 65.671875 " fill-opacity="1" fill-rule="nonzero"/></g></g></g></g><g clip-path="url(#efc3bbb7e9)"><g clip-path="url(#301a4d091f)"><g clip-path="url(#97b47aff22)"><g clip-path="url(#0882971191)"><path fill="#e2e1bc" d="M 264.707031 19.464844 C 287.582031 18.703125 295.589844 9.058594 306.789062 13.28125 C 313.714844 15.890625 316.167969 24.035156 318.136719 29.632812 C 323.875 45.941406 318.679688 59.007812 331.355469 80.277344 C 334.464844 85.492188 340.015625 94.332031 332.699219 102.289062 C 329.132812 106.171875 315.796875 108.703125 315.796875 108.703125 L 262.6875 118.535156 C 262.6875 118.535156 249.242188 121.132812 243.8125 111.671875 C 242.914062 110.113281 239.816406 102.664062 239.964844 96.597656 C 240.496094 74.8125 234.878906 61.195312 231.320312 46 C 230.019531 40.4375 228.925781 32.363281 235.464844 24.449219 C 242.003906 16.539062 260.84375 19.59375 264.707031 19.464844 Z M 264.707031 19.464844 " fill-opacity="1" fill-rule="nonzero"/></g></g></g></g><g clip-path="url(#0b0da6b284)"><g clip-path="url(#186dfc5a5b)"><g clip-path="url(#d049c04f8b)"><g clip-path="url(#4b23209e7b)"><path fill="#ffffff" d="M 269.558594 56.703125 C 270.714844 62.160156 267.914062 67.371094 263.308594 68.347656 C 258.699219 69.324219 254.027344 65.691406 252.875 60.238281 C 251.71875 54.785156 254.515625 49.570312 259.125 48.597656 C 263.730469 47.621094 268.402344 51.25 269.558594 56.703125 Z M 280.816406 44 C 276.210938 44.976562 273.414062 50.1875 274.566406 55.644531 C 275.722656 61.097656 280.394531 64.726562 285.003906 63.75 C 289.609375 62.777344 292.40625 57.5625 291.253906 52.109375 C 290.097656 46.65625 285.425781 43.023438 280.816406 44 Z M 280.816406 44 " fill-opacity="1" fill-rule="nonzero"/></g></g></g></g><g clip-path="url(#fd97259463)"><g clip-path="url(#940f1ecaa9)"><g clip-path="url(#22d8c78205)"><g clip-path="url(#3bbbc8a548)"><path fill="#000000" d="M 262.757812 58.640625 C 263.410156 61.730469 261.824219 64.683594 259.214844 65.234375 C 256.609375 65.789062 253.960938 63.730469 253.308594 60.644531 C 252.652344 57.554688 254.238281 54.605469 256.847656 54.050781 C 259.457031 53.5 262.101562 55.554688 262.757812 58.640625 Z M 278.542969 49.457031 C 275.933594 50.007812 274.347656 52.960938 275.003906 56.046875 C 275.65625 59.136719 278.300781 61.191406 280.910156 60.640625 C 283.519531 60.085938 285.105469 57.136719 284.449219 54.046875 C 283.796875 50.957031 281.152344 48.902344 278.542969 49.457031 Z M 278.542969 49.457031 " fill-opacity="1" fill-rule="nonzero"/></g></g></g></g><g clip-path="url(#1bc321eb67)"><g clip-path="url(#5c1f86aaab)"><g clip-path="url(#5cb9dc7255)"><g clip-path="url(#286f443c12)"><path fill="#a3a06c" d="M 266.527344 76.800781 C 266.621094 75.097656 268.300781 73.402344 270.695312 73.074219 C 272.582031 72.820312 274.640625 73.1875 276.554688 72.496094 C 279.21875 71.53125 282.9375 67.902344 285.4375 71.324219 C 288.53125 75.558594 279.316406 80.972656 274.066406 81.105469 C 267.238281 81.277344 266.4375 78.5 266.527344 76.800781 Z M 266.527344 76.800781 " fill-opacity="1" fill-rule="nonzero"/></g></g></g></g></svg>