<svg xmlns="http://www.w3.org/2000/svg" xmlns:xlink="http://www.w3.org/1999/xlink" width="1920" zoomAndPan="magnify" viewBox="0 0 1440 809.999993" height="1080" preserveAspectRatio="xMidYMid meet" version="1.0"><defs><clipPath id="ee3e07cac8"><path d="M 435.304688 12.320312 L 1004.554688 12.320312 L 1004.554688 797.570312 L 435.304688 797.570312 Z M 435.304688 12.320312 " clip-rule="nonzero"/></clipPath></defs><g clip-path="url(#ee3e07cac8)"><path fill="#fffef9" d="M 458.617188 797.46875 C 460.109375 797.46875 461.632812 797.316406 463.09375 797.011719 C 464.558594 796.738281 465.988281 796.28125 467.359375 795.730469 C 468.761719 795.152344 470.070312 794.453125 471.320312 793.628906 C 472.570312 792.777344 473.726562 791.832031 474.792969 790.765625 C 477.390625 788.167969 479.304688 784.945312 480.402344 781.449219 C 483.300781 790.726562 491.953125 797.464844 502.210938 797.464844 C 512.414062 797.464844 521.066406 790.761719 523.992188 781.53125 C 526.917969 790.761719 535.570312 797.464844 545.773438 797.464844 C 555.980469 797.464844 564.632812 790.761719 567.554688 781.53125 C 570.480469 790.761719 579.132812 797.464844 589.335938 797.464844 C 599.574219 797.464844 608.195312 790.761719 611.117188 781.53125 C 614.042969 790.761719 622.695312 797.464844 632.898438 797.464844 C 643.136719 797.464844 651.757812 790.761719 654.710938 781.53125 C 657.636719 790.761719 666.289062 797.464844 676.492188 797.464844 C 686.699219 797.464844 695.351562 790.761719 698.273438 781.53125 C 701.199219 790.761719 709.851562 797.464844 720.058594 797.464844 C 730.261719 797.464844 738.910156 790.761719 741.835938 781.53125 C 744.761719 790.761719 753.414062 797.464844 763.617188 797.464844 C 773.820312 797.464844 782.472656 790.761719 785.398438 781.53125 C 788.324219 790.761719 796.976562 797.464844 807.207031 797.464844 C 817.417969 797.464844 826.066406 790.761719 828.988281 781.53125 C 831.914062 790.761719 840.535156 797.464844 850.769531 797.464844 C 860.976562 797.464844 869.625 790.761719 872.550781 781.53125 C 875.472656 790.761719 884.125 797.464844 894.332031 797.464844 C 904.535156 797.464844 913.183594 790.761719 916.109375 781.53125 C 919.035156 790.761719 927.6875 797.464844 937.890625 797.464844 C 948.113281 797.464844 956.773438 790.738281 959.6875 781.472656 C 960.796875 784.960938 962.714844 788.171875 965.308594 790.765625 C 966.375 791.832031 967.53125 792.777344 968.78125 793.628906 C 970.03125 794.453125 971.34375 795.152344 972.746094 795.730469 C 974.113281 796.28125 975.546875 796.738281 977.007812 797.042969 C 978.46875 797.316406 979.992188 797.46875 981.484375 797.46875 C 982.945312 797.46875 984.46875 797.316406 985.933594 797.042969 C 987.394531 796.738281 988.828125 796.28125 990.199219 795.730469 C 991.597656 795.152344 992.910156 794.453125 994.15625 793.628906 C 995.40625 792.777344 996.5625 791.832031 997.632812 790.765625 C 1001.894531 786.53125 1004.332031 780.652344 1004.332031 774.621094 C 1004.332031 773.128906 1004.179688 771.632812 1003.878906 770.171875 C 1003.570312 768.710938 1003.148438 767.277344 1002.570312 765.875 C 1001.988281 764.503906 1001.285156 763.164062 1000.464844 761.945312 C 999.640625 760.699219 998.667969 759.511719 997.632812 758.472656 C 996.5625 757.40625 995.410156 756.464844 994.15625 755.640625 C 992.90625 754.820312 991.597656 754.085938 990.199219 753.539062 C 989.609375 753.289062 989.003906 753.082031 988.398438 752.886719 C 997.640625 749.949219 1004.332031 741.3125 1004.332031 731.117188 C 1004.332031 720.941406 997.664062 712.351562 988.496094 709.367188 C 997.664062 706.410156 1004.332031 697.789062 1004.332031 687.644531 C 1004.332031 677.472656 997.664062 668.851562 988.496094 665.894531 C 997.664062 662.910156 1004.332031 654.289062 1004.332031 644.113281 C 1004.332031 633.96875 997.691406 625.347656 988.496094 622.390625 C 997.695312 619.40625 1004.332031 610.785156 1004.332031 600.640625 C 1004.332031 590.464844 997.691406 581.84375 988.496094 578.890625 C 997.695312 575.933594 1004.332031 567.3125 1004.332031 557.140625 C 1004.332031 546.964844 997.664062 538.34375 988.496094 535.386719 C 997.664062 532.433594 1004.332031 523.8125 1004.332031 513.636719 C 1004.332031 503.460938 997.691406 494.839844 988.496094 491.886719 C 997.695312 488.929688 1004.332031 480.308594 1004.332031 470.132812 C 1004.332031 459.960938 997.691406 451.367188 988.496094 448.382812 C 997.695312 445.429688 1004.332031 436.808594 1004.332031 426.632812 C 1004.332031 416.457031 997.664062 407.867188 988.496094 404.882812 C 997.664062 401.925781 1004.332031 393.304688 1004.332031 383.128906 C 1004.332031 372.984375 997.664062 364.363281 988.496094 361.410156 C 997.664062 358.425781 1004.332031 349.832031 1004.332031 339.660156 C 1004.332031 329.484375 997.691406 320.863281 988.496094 317.90625 C 997.695312 314.921875 1004.332031 306.300781 1004.332031 296.15625 C 1004.332031 285.980469 997.691406 277.359375 988.496094 274.40625 C 997.695312 271.449219 1004.332031 262.828125 1004.332031 252.652344 C 1004.332031 242.480469 997.664062 233.859375 988.496094 230.902344 C 997.664062 227.949219 1004.332031 219.328125 1004.332031 209.152344 C 1004.332031 198.976562 997.664062 190.355469 988.496094 187.402344 C 997.664062 184.445312 1004.332031 175.824219 1004.332031 165.648438 C 1004.332031 155.503906 997.691406 146.882812 988.496094 143.898438 C 997.695312 140.945312 1004.332031 132.320312 1004.332031 122.179688 C 1004.332031 112.003906 997.691406 103.382812 988.496094 100.425781 C 997.695312 97.441406 1004.332031 88.820312 1004.332031 78.675781 C 1004.332031 68.453125 997.644531 59.832031 988.398438 56.902344 C 989.007812 56.707031 989.613281 56.5 990.199219 56.253906 C 991.601562 55.707031 992.910156 54.976562 994.160156 54.152344 C 995.410156 53.328125 996.566406 52.386719 997.636719 51.320312 C 998.671875 50.285156 999.644531 49.09375 1000.46875 47.847656 C 1001.292969 46.597656 1001.992188 45.289062 1002.570312 43.917969 C 1003.148438 42.515625 1003.574219 41.082031 1003.882812 39.621094 C 1004.1875 38.160156 1004.335938 36.667969 1004.335938 35.171875 C 1004.335938 33.679688 1004.183594 32.1875 1003.882812 30.695312 C 1003.574219 29.234375 1003.152344 27.800781 1002.570312 26.429688 C 1001.992188 25.058594 1001.289062 23.71875 1000.46875 22.46875 C 999.644531 21.222656 998.671875 20.0625 997.636719 18.996094 C 996.566406 17.960938 995.414062 16.988281 994.160156 16.164062 C 992.910156 15.339844 991.601562 14.640625 990.199219 14.0625 C 988.828125 13.484375 987.398438 13.054688 985.933594 12.753906 C 982.980469 12.171875 979.964844 12.171875 977.007812 12.753906 C 975.550781 13.054688 974.117188 13.484375 972.746094 14.0625 C 971.347656 14.640625 970.035156 15.339844 968.785156 16.164062 C 967.539062 16.988281 966.378906 17.960938 965.3125 18.996094 C 964.277344 20.0625 963.300781 21.222656 962.476562 22.46875 C 961.652344 23.71875 960.957031 25.058594 960.375 26.429688 C 960.117188 27.046875 959.894531 27.683594 959.695312 28.324219 C 956.78125 19.058594 948.121094 12.328125 937.894531 12.328125 C 927.6875 12.328125 919.039062 19.03125 916.113281 28.261719 C 913.1875 19.03125 904.535156 12.328125 894.335938 12.328125 C 884.125 12.328125 875.476562 19.03125 872.550781 28.261719 C 869.628906 19.03125 860.976562 12.328125 850.773438 12.328125 C 840.539062 12.328125 831.917969 19.03125 828.992188 28.261719 C 826.039062 19.03125 817.386719 12.328125 807.179688 12.328125 C 796.976562 12.328125 788.328125 19.03125 785.402344 28.261719 C 782.476562 19.03125 773.824219 12.328125 763.621094 12.328125 C 753.417969 12.328125 744.761719 19.03125 741.839844 28.261719 C 738.914062 19.03125 730.261719 12.328125 720.058594 12.328125 C 709.851562 12.328125 701.203125 19.03125 698.277344 28.261719 C 695.355469 19.03125 686.703125 12.328125 676.496094 12.328125 C 666.261719 12.328125 657.640625 19.03125 654.714844 28.261719 C 651.789062 19.03125 643.140625 12.328125 632.902344 12.328125 C 622.699219 12.328125 614.046875 19.03125 611.121094 28.261719 C 608.195312 19.03125 599.546875 12.328125 589.339844 12.328125 C 579.136719 12.328125 570.484375 19.03125 567.558594 28.261719 C 564.632812 19.03125 555.980469 12.328125 545.777344 12.328125 C 535.570312 12.328125 526.917969 19.03125 523.996094 28.261719 C 521.070312 19.03125 512.417969 12.328125 502.214844 12.328125 C 491.964844 12.328125 483.320312 19.054688 480.414062 28.320312 C 480.214844 27.683594 479.992188 27.050781 479.730469 26.433594 C 479.152344 25.0625 478.453125 23.722656 477.628906 22.472656 C 476.808594 21.222656 475.832031 20.066406 474.796875 19 C 473.730469 17.964844 472.574219 16.988281 471.324219 16.167969 C 470.074219 15.34375 468.765625 14.644531 467.363281 14.066406 C 465.992188 13.484375 464.5625 13.058594 463.097656 12.753906 C 460.144531 12.175781 457.128906 12.175781 454.171875 12.753906 C 452.710938 13.058594 451.277344 13.484375 449.90625 14.066406 C 448.507812 14.644531 447.195312 15.34375 445.945312 16.167969 C 444.699219 16.988281 443.539062 17.964844 442.472656 19 C 441.4375 20.066406 440.464844 21.222656 439.640625 22.472656 C 438.820312 23.722656 438.117188 25.0625 437.539062 26.433594 C 436.960938 27.804688 436.535156 29.234375 436.230469 30.699219 C 435.921875 32.1875 435.769531 33.683594 435.769531 35.171875 C 435.769531 36.667969 435.921875 38.160156 436.226562 39.621094 C 436.53125 41.082031 436.957031 42.515625 437.535156 43.917969 C 438.113281 45.289062 438.816406 46.597656 439.636719 47.847656 C 440.460938 49.09375 441.433594 50.253906 442.472656 51.320312 C 443.539062 52.386719 444.695312 53.328125 445.945312 54.152344 C 447.191406 54.976562 448.503906 55.675781 449.90625 56.253906 C 450.488281 56.5 451.09375 56.707031 451.695312 56.898438 C 442.472656 59.828125 435.800781 68.453125 435.800781 78.675781 C 435.800781 88.820312 442.410156 97.441406 451.609375 100.425781 C 442.410156 103.382812 435.800781 112.003906 435.800781 122.148438 C 435.800781 132.320312 442.410156 140.945312 451.609375 143.898438 C 442.410156 146.882812 435.800781 155.476562 435.800781 165.648438 C 435.800781 175.824219 442.410156 184.445312 451.609375 187.402344 C 442.410156 190.355469 435.800781 198.976562 435.800781 209.152344 C 435.800781 219.328125 442.410156 227.949219 451.609375 230.902344 C 442.410156 233.859375 435.800781 242.480469 435.800781 252.652344 C 435.800781 262.828125 442.441406 271.449219 451.609375 274.40625 C 442.441406 277.359375 435.800781 285.980469 435.800781 296.15625 C 435.800781 306.332031 442.410156 314.953125 451.609375 317.90625 C 442.410156 320.863281 435.800781 329.484375 435.800781 339.660156 C 435.800781 349.832031 442.410156 358.425781 451.609375 361.410156 C 442.410156 364.363281 435.800781 372.984375 435.800781 383.160156 C 435.800781 393.304688 442.410156 401.925781 451.609375 404.882812 C 442.410156 407.867188 435.800781 416.488281 435.800781 426.632812 C 435.800781 436.808594 442.410156 445.429688 451.609375 448.382812 C 442.410156 451.367188 435.800781 459.960938 435.800781 470.132812 C 435.800781 480.308594 442.441406 488.929688 451.609375 491.886719 C 442.441406 494.839844 435.800781 503.460938 435.800781 513.636719 C 435.800781 523.8125 442.441406 532.433594 451.609375 535.386719 C 442.441406 538.34375 435.800781 546.964844 435.800781 557.140625 C 435.800781 567.3125 442.410156 575.933594 451.609375 578.890625 C 442.410156 581.84375 435.800781 590.464844 435.800781 600.640625 C 435.800781 610.816406 442.441406 619.4375 451.609375 622.390625 C 442.441406 625.347656 435.800781 633.96875 435.800781 644.144531 C 435.800781 654.289062 442.410156 662.910156 451.609375 665.894531 C 442.410156 668.851562 435.800781 677.472656 435.800781 687.617188 C 435.800781 697.789062 442.410156 706.410156 451.609375 709.367188 C 442.410156 712.351562 435.800781 720.972656 435.800781 731.117188 C 435.800781 741.3125 442.46875 749.949219 451.6875 752.886719 C 451.085938 753.085938 450.484375 753.296875 449.90625 753.539062 C 448.503906 754.085938 447.191406 754.820312 445.945312 755.640625 C 444.695312 756.464844 443.539062 757.40625 442.472656 758.472656 C 441.433594 759.511719 440.460938 760.699219 439.636719 761.945312 C 438.816406 763.195312 438.113281 764.507812 437.535156 765.875 C 436.957031 767.277344 436.53125 768.710938 436.226562 770.171875 C 435.921875 771.632812 435.769531 773.128906 435.769531 774.621094 C 435.769531 780.652344 438.238281 786.53125 442.472656 790.765625 C 443.539062 791.832031 444.695312 792.777344 445.945312 793.628906 C 447.191406 794.453125 448.503906 795.152344 449.90625 795.730469 C 451.273438 796.28125 452.707031 796.738281 454.167969 797.011719 C 455.632812 797.316406 457.15625 797.46875 458.617188 797.46875 Z M 458.617188 797.46875 " fill-opacity="1" fill-rule="nonzero"/></g></svg>